<?xml version="1.0" encoding="iso-8859-1"?>
<!-- Uploaded to: SVG Repo, www.svgrepo.com, Generator: SVG Repo Mixer Tools -->
<svg fill="#000000" height="800px" width="800px" version="1.1" id="Layer_1" xmlns="http://www.w3.org/2000/svg" xmlns:xlink="http://www.w3.org/1999/xlink" 
	 viewBox="0 0 512.001 512.001" xml:space="preserve">
<g>
	<g>
		<path d="M397.98,80.187L264.415,2.275c-5.196-3.033-11.63-3.033-16.826,0L114.025,80.187c-5.13,2.994-8.282,9.528-8.282,15.467
			c-0.002,27.045,21.998,49.044,49.042,49.044h201.391c27.619,0,50.087-22.468,50.087-50.087
			C406.262,88.671,403.11,83.182,397.98,80.187z"/>
	</g>
</g>
<g>
	<g>
		<path d="M422.956,178.089c-9.217,0-16.696,7.473-16.696,16.696c0,9.206-7.49,16.696-16.696,16.696h-16.696v-33.391H139.131v33.391
			h-16.696c-9.206,0-16.696-7.49-16.696-16.696c0-9.223-7.479-16.696-16.696-16.696c-9.217,0-16.696,7.473-16.696,16.696
			c0,27.619,22.468,50.087,50.087,50.087h267.129c27.619,0,50.087-22.468,50.087-50.087
			C439.652,185.562,432.173,178.089,422.956,178.089z"/>
	</g>
</g>
<g>
	<g>
		<path d="M456.347,311.654c-9.217,0-16.696,7.473-16.696,16.696c0,9.206-7.49,16.696-16.696,16.696h-16.696v-66.782H105.74v66.782
			H89.045c-9.206,0-16.696-7.49-16.696-16.696c0-9.223-7.479-16.696-16.696-16.696c-9.217,0-16.696,7.473-16.696,16.696
			c0,27.619,22.468,50.087,50.087,50.087h333.912c27.619,0,50.087-22.468,50.087-50.087
			C473.043,319.127,465.564,311.654,456.347,311.654z M272.696,345.045h-33.391v-33.391h33.391V345.045z"/>
	</g>
</g>
<g>
	<g>
		<path d="M489.739,478.61h-50.087v-66.782H72.349v66.782H22.262c-9.217,0-16.696,7.473-16.696,16.696s7.479,16.696,16.696,16.696
			h467.476c9.217,0,16.696-7.473,16.696-16.696S498.956,478.61,489.739,478.61z M272.696,478.61h-33.391v-33.391h33.391V478.61z"/>
	</g>
</g>
</svg>